#!OML:ASF H:\GeneralSubjects\Female5\Project 1\Capture day 1\Session 1\Female5.ASF
:FULLY-SPECIFIED
:DEGREES
302
root 6.37801 13.3802 3.26844 -191.506 -64.289 209.737
lowerback 17.9394 -0.456921 2.76601
upperback -9.09586 0.347055 2.21894
thorax -20.5697 -0.0962076 0.860623
lowerneck -14.1956 2.66262 5.94301
upperneck 23.8765 3.4751 -6.69896
head 10.173 1.1708 -2.96383
rclavicle 3.21534e-014 2.62396e-014
rhumerus -43.2904 11.7597 -55.93
rradius 94.0575
rwrist -8.06643
rhand -46.7286 -8.63024
rfingers 7.12502
rthumb -19.4463 -37.6778
lclavicle 3.21534e-014 2.62396e-014
lhumerus -16.5982 18.0515 65.879
lradius 102.802
lwrist -4.65036
lhand -50.6669 52.2019
lfingers 7.12502
lthumb -23.2291 -639.179
rfemur -36.4998 3.44931 42.635
rtibia 59.8144
rfoot -47.4073 -23.9344
rtoes -23.7622
lfemur -64.6488 -5.22799 5.4417
ltibia 72.3293
lfoot -38.8954 -7.01439
ltoes -30.8532
303
root 6.32146 13.3524 3.37826 -186.353 -61.5253 204.358
lowerback 17.9017 0.607308 3.06394
upperback -9.17823 1.64327 0.71035
thorax -20.5696 0.278181 -1.48667
lowerneck -14.2258 2.38887 5.45347
upperneck 23.9235 2.98861 -5.79873
head 10.1378 1.00868 -2.62184
rclavicle -6.67916e-014 -3.18055e-014
rhumerus -39.1194 11.429 -57.464
rradius 93.5204
rwrist -7.54237
rhand -46.9468 -9.651
rfingers 7.12502
rthumb -19.6562 -38.6773
lclavicle -6.67916e-014 -3.18055e-014
lhumerus -20.1297 20.0837 61.9089
lradius 103.944
lwrist -3.28686
lhand -50.3722 51.3435
lfingers 7.12502
lthumb -22.9463 -640.002
rfemur -37.4965 4.41432 40.7154
rtibia 60.8397
rfoot -46.6718 -22.8425
rtoes -22.5979
lfemur -63.2907 -6.64449 4.67203
ltibia 73.3408
lfoot -39.2226 -8.27889
ltoes -30.9473
304
root 6.25612 13.3282 3.48911 -182.121 -58.4133 199.869
lowerback 17.8997 1.70471 3.23952
upperback -9.23468 2.9508 -0.723446
thorax -20.4793 0.679979 -3.67732
lowerneck -14.3114 2.232 5.01053
upperneck 24.0038 2.67253 -4.9813
head 10.145 0.918077 -2.29692
rclavicle -2.8625e-014 -7.95139e-015
rhumerus -34.6642 11.1546 -59.0832
rradius 92.7022
rwrist -7.28576
rhand -46.8731 -9.85477
rfingers 7.12502
rthumb -19.5853 -38.8883
lclavicle -2.8625e-014 -7.95139e-015
lhumerus -24.3316 21.9408 57.5441
lradius 105.016
lwrist -2.2942
lhand -50.5088 50.6827
lfingers 7.12502
lthumb -23.0774 -640.679
rfemur -38.6777 4.95751 38.8388
rtibia 61.984
rfoot -45.7528 -21.802
rtoes -21.5405
lfemur -61.6943 -8.5725 4.45389
ltibia 74.2741
lfoot -38.968 -7.48051
ltoes -34.008
305
root 6.18876 13.2878 3.59379 -178.163 -55.0177 196.006
lowerback 17.4096 2.90685 3.13349
upperback -9.38843 4.2941 -2.12127
thorax -20.1459 1.14743 -5.64127
lowerneck -14.5498 2.18677 5.04804
upperneck 24.2392 2.54959 -4.81472
head 10.2676 0.880116 -2.26366
rclavicle 7.26558e-014 -9.54166e-015
rhumerus -30.2545 10.9638 -60.749
rradius 91.8841
rwrist -7.41411
rhand -46.5945 -9.65163
rfingers 7.12502
rthumb -19.3174 -38.7122
lclavicle 7.26558e-014 -9.54166e-015
lhumerus -28.9687 23.4365 52.9447
lradius 105.739
lwrist -1.50034
lhand -50.8555 51.1645
lfingers 7.12502
lthumb -23.41 -640.239
rfemur -40.6146 5.58226 36.9958
rtibia 63.4349
rfoot -44.9559 -20.9825
rtoes -20.7572
lfemur -60.3907 -10.9461 4.89749
ltibia 75.5989
lfoot -38.2444 -7.74231
ltoes -37.3566
306
root 6.10239 13.2591 3.68537 -175.472 -51.2598 192.928
lowerback 17.4163 4.23031 2.93558
upperback -9.46517 5.81194 -3.42946
thorax -19.9508 1.71218 -7.52149
lowerneck -14.6987 1.98233 4.28133
upperneck 24.3117 2.14332 -3.59418
head 10.277 0.767455 -1.75177
rclavicle 9.44227e-015 -3.65764e-014
rhumerus -26.3217 10.9134 -62.3192
rradius 91.2994
rwrist -8.02872
rhand -46.5762 -9.53388
rfingers 7.12502
rthumb -19.2998 -38.5962
lclavicle 9.44227e-015 -3.65764e-014
lhumerus -33.5273 24.5415 48.3365
lradius 105.855
lwrist -0.887526
lhand -51.2125 51.5769
lfingers 7.12502
lthumb -23.7524 -639.871
rfemur -41.8225 6.17452 35.3392
rtibia 64.4064
rfoot -43.9063 -20.6604
rtoes -20.684
lfemur -57.9554 -14.0509 5.51005
ltibia 76.8383
lfoot -36.0031 -9.74301
ltoes -38.0007
